<svg xmlns="http://www.w3.org/2000/svg" viewBox="0 0 24 24" fill="none" stroke="currentColor" stroke-width="2" stroke-linecap="round" stroke-linejoin="round"><circle cx="12" cy="12" r="3"/><path d="M19.4 15 a1.65 1.65 0 0 0 .33 1.82 l.06.06 a2 2 0 1 1-2.83 2.83 l-.06-.06 a1.65 1.65 0 0 0-1.82-.33 a1.65 1.65 0 0 0-1 1.51 V21 a2 2 0 1 1-4 0 v-.09 A1.65 1.65 0 0 0 9 19.4 a1.65 1.65 0 0 0-1.82.33 l-.06.06 a2 2 0 1 1-2.83-2.83 l.06-.06 a1.65 1.65 0 0 0 .33-1.82 a1.65 1.65 0 0 0-1.51-1 H3 a2 2 0 1 1 0-4 h.09 A1.65 1.65 0 0 0 4.6 9 a1.65 1.65 0 0 0-.33-1.82 l-.06-.06 a2 2 0 1 1 2.83-2.83 l.06.06 a1.65 1.65 0 0 0 1.82.33 H9 a1.65 1.65 0 0 0 1-1.51 V3 a2 2 0 1 1 4 0 v.09 a1.65 1.65 0 0 0 1 1.51 a1.65 1.65 0 0 0 1.82-.33 l.06-.06 a2 2 0 1 1 2.83 2.83 l-.06.06 a1.65 1.65 0 0 0-.33 1.82 V9 a1.65 1.65 0 0 0 1.51 1 H21 a2 2 0 1 1 0 4 h-.09 a1.65 1.65 0 0 0-1.51 1 Z"/></svg>
