<svg width="108" height="38" viewBox="0 0 108 38" fill="none" xmlns="http://www.w3.org/2000/svg">
<path d="M15.3809 15.9516H18.2173V17.7508C18.2173 18.2122 17.9944 18.4429 17.5485 18.4429H15.3809V27.9915C15.3809 28.4529 15.1657 28.6836 14.7352 28.6836H12.5907V9.14662C12.5907 8.68527 12.8136 8.45459 13.2594 8.45459H15.3809V15.9516ZM9.59289 22.2951C9.59289 22.7565 9.50065 23.0871 9.31617 23.287C9.1317 23.4716 8.81654 23.5639 8.37072 23.5639H1.24523C0.799408 23.5639 0.47657 23.4716 0.276718 23.287C0.0922394 23.0871 0 22.7565 0 22.2951V11.4303C0 10.969 0.0922394 10.646 0.276718 10.4615C0.47657 10.2616 0.799408 10.1616 1.24523 10.1616H9.59289V22.2951ZM3.34368 12.5145C3.11308 12.5145 2.95935 12.5529 2.88248 12.6298C2.82099 12.7067 2.79024 12.8605 2.79024 13.0912V20.6343C2.79024 20.8649 2.82099 21.0187 2.88248 21.0956C2.95935 21.1725 3.11308 21.211 3.34368 21.211H6.24922C6.46444 21.211 6.61049 21.1725 6.68735 21.0956C6.76422 21.0187 6.80265 20.8649 6.80265 20.6343V12.5145H3.34368Z" fill="black"/>
<path d="M35.9498 27.9915C35.9498 28.4529 35.7346 28.6836 35.3041 28.6836H33.1596V9.14662C33.1596 8.68527 33.3825 8.45459 33.8283 8.45459H35.9498V27.9915ZM24.9041 10.1155C26.7643 10.1155 28.1248 10.646 28.9857 11.7071C29.862 12.7682 30.3001 14.4368 30.3001 16.7128C30.3001 19.0042 29.8697 20.6804 29.0088 21.7415C28.1479 22.7872 26.7797 23.3101 24.9041 23.3101C23.0286 23.3101 21.6604 22.7872 20.7995 21.7415C19.9386 20.6804 19.5081 19.0042 19.5081 16.7128C19.5081 14.4368 19.9386 12.7682 20.7995 11.7071C21.6758 10.646 23.044 10.1155 24.9041 10.1155ZM24.9502 12.5837H24.858C23.9971 12.5837 23.3514 12.9143 22.921 13.5756C22.5059 14.2215 22.2984 15.2672 22.2984 16.7128C22.2984 18.1737 22.5059 19.2271 22.921 19.873C23.3514 20.5189 23.9971 20.8419 24.858 20.8419H24.9502C25.8111 20.8419 26.4491 20.5189 26.8642 19.873C27.2947 19.2271 27.5099 18.1737 27.5099 16.7128C27.5099 15.2672 27.2947 14.2215 26.8642 13.5756C26.4491 12.9143 25.8111 12.5837 24.9502 12.5837Z" fill="black"/>
<path d="M105.879 9.94015C105.879 10.2073 105.785 10.4116 105.596 10.553C105.424 10.6788 105.133 10.7652 104.725 10.8123C104.316 10.8595 103.72 10.8831 102.934 10.8831H91.4618V9.16225C91.4618 8.70651 91.6895 8.47864 92.1449 8.47864H103.052C104.34 8.47864 105.282 8.32935 105.879 8.03076V9.94015ZM105.172 19.6521C106.476 19.6521 107.418 19.5028 107.999 19.2042V21.1136C107.999 21.3807 107.905 21.585 107.717 21.7265C107.544 21.8679 107.253 21.9622 106.845 22.0093C106.437 22.0565 105.848 22.0801 105.078 22.0801H89.3887V20.3593C89.3887 19.8878 89.6164 19.6521 90.0718 19.6521H97.257V17.837H91.4146V16.1398C91.4146 15.6683 91.6424 15.4326 92.0978 15.4326H94.1238V12.321C94.1238 11.8652 94.3515 11.6374 94.807 11.6374H96.9272V15.4326H100.461V12.321C100.461 11.8652 100.689 11.6374 101.144 11.6374H103.264V15.4326H105.926V17.1534C105.926 17.6091 105.699 17.837 105.243 17.837H100.107V19.6521H105.172ZM102.911 27.1717C104.214 27.1717 105.157 27.0225 105.738 26.7239V28.6804C105.738 28.9476 105.644 29.1518 105.455 29.2933C105.282 29.4347 104.992 29.529 104.583 29.5762C104.175 29.6233 103.586 29.6469 102.817 29.6469H93.2286C92.7731 29.6469 92.4512 29.5447 92.2627 29.3404C92.0743 29.1518 91.98 28.8218 91.98 28.3504V23.9894C91.98 23.5337 92.1842 23.3058 92.5925 23.3058H94.8305V26.5824C94.8305 26.8339 94.8619 26.991 94.9248 27.0539C95.0033 27.1325 95.1603 27.1717 95.3959 27.1717H102.911Z" fill="black"/>
<path d="M84.3848 9.50085C84.3848 9.76825 84.2985 9.97274 84.1257 10.1143C83.953 10.2401 83.6703 10.3267 83.2776 10.3738C82.885 10.421 82.3118 10.4446 81.5579 10.4446H80.2858C80.0659 10.4446 79.956 10.5626 79.956 10.7985V12.7569C79.956 12.9928 80.0659 13.1108 80.2858 13.1108H81.7464C83.0656 13.1108 83.9844 12.9692 84.5026 12.6861V14.4793C84.5026 14.8253 84.2906 15.0691 83.8666 15.2107C83.4582 15.3523 82.7201 15.423 81.6521 15.423H78.519C78.0635 15.423 77.7415 15.3287 77.5531 15.1399C77.3646 14.9354 77.2704 14.6051 77.2704 14.1489V9.40647C77.2704 8.95031 77.3646 8.62786 77.5531 8.4391C77.7415 8.23462 78.0635 8.13238 78.519 8.13238H81.6757C82.9321 8.13238 83.8352 7.98294 84.3848 7.68408V9.50085ZM76.4223 9.76039C76.4223 10.2165 76.1946 10.4446 75.7391 10.4446H72.3939C72.1583 10.4446 72.0406 10.5626 72.0406 10.7985V12.7569C72.0406 12.9771 72.1583 13.0872 72.3939 13.0872C72.9593 13.1187 73.6111 13.1108 74.3492 13.0636C75.0874 13.0164 75.7705 12.9378 76.3988 12.8277L76.6343 14.4557C76.6657 14.6759 76.6186 14.841 76.493 14.9512C76.383 15.0613 76.2024 15.132 75.9512 15.1635C75.3544 15.2736 74.5534 15.3523 73.5483 15.3994C72.5431 15.4466 71.5615 15.4624 70.6035 15.4466C70.1481 15.4309 69.8261 15.3287 69.6377 15.1399C69.4492 14.9512 69.355 14.6208 69.355 14.1489V9.40647C69.355 8.95031 69.4492 8.62786 69.6377 8.4391C69.8261 8.23462 70.1402 8.13238 70.58 8.13238H76.4223V9.76039ZM86.1517 18.278C86.1517 18.5454 86.0574 18.7498 85.869 18.8914C85.6962 19.033 85.4057 19.1274 84.9973 19.1745C84.589 19.2217 84.0001 19.2453 83.2305 19.2453H67.541V17.5465C67.541 17.0746 67.7687 16.8387 68.2242 16.8387H83.3247C84.6283 16.8387 85.5706 16.6893 86.1517 16.3904V18.278ZM82.2882 20.661C82.7437 20.661 83.0656 20.7632 83.2541 20.9677C83.4425 21.1565 83.5368 21.4868 83.5368 21.9587V25.0967C83.5368 25.5686 83.4425 25.9068 83.2541 26.1113C83.0656 26.3158 82.7437 26.418 82.2882 26.418H72.9358V27.4562C72.9358 27.6764 73.0535 27.7865 73.2891 27.7865H81.3695C82.6573 27.7865 83.5917 27.6371 84.1728 27.3382V29.0842C84.1728 29.3516 84.0786 29.5561 83.8901 29.6976C83.7174 29.8392 83.4268 29.9336 83.0185 29.9808C82.6102 30.028 82.0212 30.0516 81.2517 30.0516H71.3574C70.9019 30.0516 70.58 29.9493 70.3915 29.7448C70.203 29.5561 70.1088 29.2258 70.1088 28.7539V25.5686C70.1088 25.0967 70.203 24.7664 70.3915 24.5777C70.58 24.3732 70.9019 24.2709 71.3574 24.2709H80.7098V23.28C80.7098 23.044 80.592 22.9261 80.3565 22.9261H70.7684C70.313 22.9261 70.0853 22.6901 70.0853 22.2182V20.661H82.2882Z" fill="black"/>
<path fill-rule="evenodd" clip-rule="evenodd" d="M63.6969 6.84422C64.7555 8.34322 64.7555 10.3155 64.7555 14.2601V23.6488C64.7555 27.5934 64.7555 29.5657 63.6969 31.0647C62.6383 32.5637 60.7796 33.2233 57.0621 34.5426L55.5016 35.0964C48.4787 37.5887 44.9673 38.8348 42.5218 37.1077C40.0762 35.3805 40.0762 31.6546 40.0762 24.2026V13.7063C40.0762 6.25435 40.0762 2.52837 42.5218 0.801245C44.9673 -0.925876 48.4788 0.320264 55.5016 2.81254L57.0621 3.36634C60.7796 4.68559 62.6383 5.34522 63.6969 6.84422ZM62.6739 12.1732H59.7773V7.7417H57.6108C57.1555 7.7417 56.9278 7.97742 56.9278 8.44886V18.8912H59.0944C59.5497 18.8912 59.7773 18.6555 59.7773 18.1841V14.719H61.991C62.4463 14.719 62.6739 14.4833 62.6739 14.0118V12.1732ZM53.3012 9.8396C52.3592 8.95958 51.0012 8.51957 49.2271 8.51957C47.453 8.51957 46.0871 8.96744 45.1295 9.86317C44.1875 10.7432 43.7165 11.9689 43.7165 13.5404C43.7165 15.1433 44.1875 16.3847 45.1295 17.2648C46.0871 18.1291 47.453 18.5612 49.2271 18.5612C51.0012 18.5612 52.3592 18.1291 53.3012 17.2648C54.2589 16.3847 54.7377 15.1433 54.7377 13.5404C54.7377 11.9532 54.2589 10.7196 53.3012 9.8396ZM47.2254 11.5368C47.6807 11.0811 48.3322 10.8532 49.18 10.8532H49.2742C50.122 10.8532 50.7735 11.0811 51.2288 11.5368C51.6841 11.9768 51.9117 12.6447 51.9117 13.5404C51.9117 14.4361 51.6841 15.1118 51.2288 15.5676C50.7735 16.0076 50.122 16.2276 49.2742 16.2276H49.18C48.3322 16.2276 47.6807 16.0076 47.2254 15.5676C46.7701 15.1118 46.5424 14.4361 46.5424 13.5404C46.5424 12.6447 46.7701 11.9768 47.2254 11.5368ZM59.4712 20.3055C59.2828 20.117 58.9609 20.0227 58.5056 20.0227H46.6602V21.7198C46.6602 22.1913 46.8878 22.427 47.3431 22.427H56.5981C56.8179 22.427 56.9278 22.5449 56.9278 22.7806V23.8649H48.0025C47.5472 23.8649 47.2254 23.967 47.037 24.1713C46.8486 24.3599 46.7544 24.6899 46.7544 25.1613V28.6971C46.7544 29.1686 46.8486 29.4986 47.037 29.6871C47.2254 29.8914 47.5472 29.9936 48.0025 29.9936H57.4459C58.2152 29.9936 58.8039 29.97 59.2121 29.9229C59.6203 29.8757 59.9108 29.7814 60.0835 29.64C60.2719 29.4986 60.3661 29.2943 60.3661 29.0271V27.1414C59.7852 27.44 58.851 27.5892 57.5637 27.5892H49.9336C49.7138 27.5892 49.6039 27.4714 49.6039 27.2357V26.1749H58.5056C58.9609 26.1749 59.2828 26.0728 59.4712 25.8685C59.6753 25.6799 59.7773 25.3499 59.7773 24.8785V21.2955C59.7773 20.8241 59.6753 20.4941 59.4712 20.3055Z" fill="black"/>
</svg>
