<?xml version="1.0" encoding="utf-8"?>
<!-- Generator: Adobe Illustrator 28.3.0, SVG Export Plug-In . SVG Version: 6.00 Build 0)  -->
<svg version="1.1" id="Layer_1" xmlns="http://www.w3.org/2000/svg" xmlns:xlink="http://www.w3.org/1999/xlink" x="0px" y="0px"
	 viewBox="0 0 46.95 38.31" style="enable-background:new 0 0 46.95 38.31;" xml:space="preserve">
<style type="text/css">
	.st0{fill:#4A4A49;}
	.st1{fill:none;stroke:#1D1D1B;stroke-width:0.15;}
	.st2{fill:none;stroke:#262626;stroke-width:0.15;stroke-dasharray:1,1;}
	.st3{fill:none;stroke:#000000;stroke-width:0.15;}
	.st4{fill:#1D1D1B;}
	.st5{fill:#E20613;}
	.st6{fill:#FFFFFF;stroke:#1D1D1B;stroke-width:0.25;}
	.st7{fill:#FFFFFF;}
	.st8{fill:#333333;}
	.st9{fill:#3C3C3B;}
</style>
<path class="st4" d="M22.43,31.98l-7.44-9.14l10.8-13.3H19.9c-2.65,0-4.46,0.81-6.06,2.69l-5.69,7V7.31V0H2.43C1.09,0,0,1.09,0,2.44
	v4.87v24.67v6.33h5.71c1.35,0,2.43-1.09,2.43-2.44v-3.89v-5.65L12.77,32l3.93,4.84c0.8,1,1.84,1.46,2.91,1.46h7.97L22.43,31.98z"/>
<path class="st4" d="M37.06,38.31c-4.39,0-7.44-3.03-7.44-7.43V2.43c0-1.34,1.09-2.43,2.44-2.43h5.71v29.35
	c0,1.21,0.98,2.19,2.18,2.19h5.82v4.34c0,1.35-1.09,2.44-2.44,2.44H37.06z"/>
<path class="st5" d="M8.91,18.24l0.01-0.01C8.93,18.23,8.91,18.24,8.91,18.24L8.91,18.24z M46.95,7.43l-0.5,0.53
	c-0.03,0.01-1.55,1.57-5.95,1.57H19.75c-3.28,0-4.82,1.34-6,2.78l-0.65,0.8c-0.02,0.02-0.04,0.04-0.05,0.05l-4.12,5.07
	c1.5-1.13,3.56-1.8,5.65-1.8h25.93c3.15,0,6.17-0.94,6.42-3.29c0.03-0.19,0.03-0.3,0.03-0.3V7.43z"/>
</svg>
