<svg width="108" height="38" viewBox="0 0 108 38" fill="none" xmlns="http://www.w3.org/2000/svg">
<path d="M15.3809 15.9501H18.2173V17.7494C18.2173 18.2107 17.9944 18.4414 17.5485 18.4414H15.3809V27.9901C15.3809 28.4514 15.1657 28.6821 14.7352 28.6821H12.5907V9.14515C12.5907 8.6838 12.8136 8.45312 13.2594 8.45312H15.3809V15.9501ZM9.59289 22.2937C9.59289 22.755 9.50065 23.0857 9.31617 23.2856C9.1317 23.4701 8.81654 23.5624 8.37072 23.5624H1.24523C0.799408 23.5624 0.47657 23.4701 0.276718 23.2856C0.0922394 23.0857 0 22.755 0 22.2937V11.4288C0 10.9675 0.0922394 10.6445 0.276718 10.46C0.47657 10.2601 0.799408 10.1601 1.24523 10.1601H9.59289V22.2937ZM3.34368 12.513C3.11308 12.513 2.95935 12.5515 2.88248 12.6284C2.82099 12.7052 2.79024 12.859 2.79024 13.0897V20.6328C2.79024 20.8635 2.82099 21.0173 2.88248 21.0942C2.95935 21.1711 3.11308 21.2095 3.34368 21.2095H6.24922C6.46444 21.2095 6.61049 21.1711 6.68735 21.0942C6.76422 21.0173 6.80265 20.8635 6.80265 20.6328V12.513H3.34368Z" fill="#333333"/>
<path d="M35.9498 27.9901C35.9498 28.4514 35.7346 28.6821 35.3041 28.6821H33.1596V9.14515C33.1596 8.6838 33.3825 8.45312 33.8283 8.45312H35.9498V27.9901ZM24.9041 10.114C26.7643 10.114 28.1248 10.6445 28.9857 11.7057C29.862 12.7668 30.3001 14.4353 30.3001 16.7113C30.3001 19.0027 29.8697 20.6789 29.0088 21.7401C28.1479 22.7858 26.7797 23.3086 24.9041 23.3086C23.0286 23.3086 21.6604 22.7858 20.7995 21.7401C19.9386 20.6789 19.5081 19.0027 19.5081 16.7113C19.5081 14.4353 19.9386 12.7668 20.7995 11.7057C21.6758 10.6445 23.044 10.114 24.9041 10.114ZM24.9502 12.5822H24.858C23.9971 12.5822 23.3514 12.9129 22.921 13.5741C22.5059 14.22 22.2984 15.2658 22.2984 16.7113C22.2984 18.1723 22.5059 19.2257 22.921 19.8716C23.3514 20.5175 23.9971 20.8404 24.858 20.8404H24.9502C25.8111 20.8404 26.4491 20.5175 26.8642 19.8716C27.2947 19.2257 27.5099 18.1723 27.5099 16.7113C27.5099 15.2658 27.2947 14.22 26.8642 13.5741C26.4491 12.9129 25.8111 12.5822 24.9502 12.5822Z" fill="#333333"/>
<path d="M105.879 9.94063C105.879 10.2078 105.785 10.4121 105.596 10.5535C105.424 10.6792 105.133 10.7657 104.725 10.8128C104.316 10.86 103.72 10.8835 102.934 10.8835H91.4618V9.16274C91.4618 8.707 91.6895 8.47913 92.1449 8.47913H103.052C104.34 8.47913 105.282 8.32984 105.879 8.03125V9.94063ZM105.172 19.6526C106.476 19.6526 107.418 19.5033 107.999 19.2047V21.1141C107.999 21.3812 107.905 21.5855 107.717 21.727C107.544 21.8684 107.253 21.9627 106.845 22.0098C106.437 22.057 105.848 22.0805 105.078 22.0805H89.3887V20.3597C89.3887 19.8883 89.6164 19.6526 90.0718 19.6526H97.257V17.8375H91.4146V16.1402C91.4146 15.6688 91.6424 15.4331 92.0978 15.4331H94.1238V12.3215C94.1238 11.8657 94.3515 11.6379 94.807 11.6379H96.9272V15.4331H100.461V12.3215C100.461 11.8657 100.689 11.6379 101.144 11.6379H103.264V15.4331H105.926V17.1539C105.926 17.6096 105.699 17.8375 105.243 17.8375H100.107V19.6526H105.172ZM102.911 27.1722C104.214 27.1722 105.157 27.0229 105.738 26.7244V28.6809C105.738 28.948 105.644 29.1523 105.455 29.2938C105.282 29.4352 104.992 29.5295 104.583 29.5766C104.175 29.6238 103.586 29.6474 102.817 29.6474H93.2286C92.7731 29.6474 92.4512 29.5452 92.2627 29.3409C92.0743 29.1523 91.98 28.8223 91.98 28.3509V23.9899C91.98 23.5342 92.1842 23.3063 92.5925 23.3063H94.8305V26.5829C94.8305 26.8344 94.8619 26.9915 94.9248 27.0544C95.0033 27.1329 95.1603 27.1722 95.3959 27.1722H102.911Z" fill="#333333"/>
<path d="M84.3848 9.50036C84.3848 9.76777 84.2985 9.97225 84.1257 10.1138C83.953 10.2397 83.6703 10.3262 83.2776 10.3734C82.885 10.4205 82.3118 10.4441 81.5579 10.4441H80.2858C80.0659 10.4441 79.956 10.5621 79.956 10.7981V12.7564C79.956 12.9923 80.0659 13.1103 80.2858 13.1103H81.7464C83.0656 13.1103 83.9844 12.9687 84.5026 12.6856V14.4788C84.5026 14.8248 84.2906 15.0686 83.8666 15.2102C83.4582 15.3518 82.7201 15.4226 81.6521 15.4226H78.519C78.0635 15.4226 77.7415 15.3282 77.5531 15.1394C77.3646 14.9349 77.2704 14.6046 77.2704 14.1485V9.40598C77.2704 8.94983 77.3646 8.62737 77.5531 8.43861C77.7415 8.23413 78.0635 8.13189 78.519 8.13189H81.6757C82.9321 8.13189 83.8352 7.98246 84.3848 7.68359V9.50036ZM76.4223 9.7599C76.4223 10.2161 76.1946 10.4441 75.7391 10.4441H72.3939C72.1583 10.4441 72.0406 10.5621 72.0406 10.7981V12.7564C72.0406 12.9766 72.1583 13.0867 72.3939 13.0867C72.9593 13.1182 73.6111 13.1103 74.3492 13.0631C75.0874 13.0159 75.7705 12.9373 76.3988 12.8272L76.6343 14.4552C76.6657 14.6754 76.6186 14.8406 76.493 14.9507C76.383 15.0608 76.2024 15.1316 75.9512 15.163C75.3544 15.2731 74.5534 15.3518 73.5483 15.399C72.5431 15.4461 71.5615 15.4619 70.6035 15.4461C70.1481 15.4304 69.8261 15.3282 69.6377 15.1394C69.4492 14.9507 69.355 14.6203 69.355 14.1485V9.40598C69.355 8.94983 69.4492 8.62737 69.6377 8.43861C69.8261 8.23413 70.1402 8.13189 70.58 8.13189H76.4223V9.7599ZM86.1517 18.2775C86.1517 18.5449 86.0574 18.7494 85.869 18.8909C85.6962 19.0325 85.4057 19.1269 84.9973 19.1741C84.589 19.2212 84.0001 19.2448 83.2305 19.2448H67.541V17.546C67.541 17.0742 67.7687 16.8382 68.2242 16.8382H83.3247C84.6283 16.8382 85.5706 16.6888 86.1517 16.3899V18.2775ZM82.2882 20.6605C82.7437 20.6605 83.0656 20.7627 83.2541 20.9672C83.4425 21.156 83.5368 21.4863 83.5368 21.9582V25.0963C83.5368 25.5681 83.4425 25.9063 83.2541 26.1108C83.0656 26.3153 82.7437 26.4175 82.2882 26.4175H72.9358V27.4557C72.9358 27.6759 73.0535 27.786 73.2891 27.786H81.3695C82.6573 27.786 83.5917 27.6366 84.1728 27.3377V29.0837C84.1728 29.3511 84.0786 29.5556 83.8901 29.6972C83.7174 29.8387 83.4268 29.9331 83.0185 29.9803C82.6102 30.0275 82.0212 30.0511 81.2517 30.0511H71.3574C70.9019 30.0511 70.58 29.9488 70.3915 29.7443C70.203 29.5556 70.1088 29.2253 70.1088 28.7534V25.5681C70.1088 25.0963 70.203 24.7659 70.3915 24.5772C70.58 24.3727 70.9019 24.2704 71.3574 24.2704H80.7098V23.2795C80.7098 23.0435 80.592 22.9256 80.3565 22.9256H70.7684C70.313 22.9256 70.0853 22.6896 70.0853 22.2177V20.6605H82.2882Z" fill="#333333"/>
<path fill-rule="evenodd" clip-rule="evenodd" d="M63.6969 6.84422C64.7555 8.34322 64.7555 10.3155 64.7555 14.2601V23.6488C64.7555 27.5934 64.7555 29.5657 63.6969 31.0647C62.6383 32.5637 60.7796 33.2233 57.0621 34.5426L55.5016 35.0964C48.4787 37.5887 44.9673 38.8348 42.5218 37.1077C40.0762 35.3805 40.0762 31.6546 40.0762 24.2026V13.7063C40.0762 6.25435 40.0762 2.52837 42.5218 0.801245C44.9673 -0.925876 48.4788 0.320264 55.5016 2.81254L57.0621 3.36634C60.7796 4.68559 62.6383 5.34522 63.6969 6.84422ZM62.6739 12.1737H59.7773V7.74219H57.6108C57.1555 7.74219 56.9278 7.97791 56.9278 8.44935V18.8917H59.0944C59.5497 18.8917 59.7773 18.656 59.7773 18.1845V14.7195H61.991C62.4463 14.7195 62.6739 14.4838 62.6739 14.0123V12.1737ZM53.3012 9.84009C52.3592 8.96007 51.0012 8.52006 49.2271 8.52006C47.453 8.52006 46.0871 8.96793 45.1295 9.86366C44.1875 10.7437 43.7165 11.9694 43.7165 13.5409C43.7165 15.1438 44.1875 16.3852 45.1295 17.2652C46.0871 18.1295 47.453 18.5617 49.2271 18.5617C51.0012 18.5617 52.3592 18.1295 53.3012 17.2652C54.2589 16.3852 54.7377 15.1438 54.7377 13.5409C54.7377 11.9537 54.2589 10.7201 53.3012 9.84009ZM47.2254 11.5373C47.6807 11.0815 48.3322 10.8537 49.18 10.8537H49.2742C50.122 10.8537 50.7735 11.0815 51.2288 11.5373C51.6841 11.9773 51.9117 12.6451 51.9117 13.5409C51.9117 14.4366 51.6841 15.1123 51.2288 15.5681C50.7735 16.0081 50.122 16.2281 49.2742 16.2281H49.18C48.3322 16.2281 47.6807 16.0081 47.2254 15.5681C46.7701 15.1123 46.5424 14.4366 46.5424 13.5409C46.5424 12.6451 46.7701 11.9773 47.2254 11.5373ZM59.4712 20.306C59.2828 20.1174 58.9609 20.0232 58.5056 20.0232H46.6602V21.7203C46.6602 22.1918 46.8878 22.4275 47.3431 22.4275H56.5981C56.8179 22.4275 56.9278 22.5453 56.9278 22.7811V23.8654H48.0025C47.5472 23.8654 47.2254 23.9675 47.037 24.1718C46.8486 24.3604 46.7544 24.6904 46.7544 25.1618V28.6976C46.7544 29.1691 46.8486 29.4991 47.037 29.6876C47.2254 29.8919 47.5472 29.9941 48.0025 29.9941H57.4459C58.2152 29.9941 58.8039 29.9705 59.2121 29.9234C59.6203 29.8762 59.9108 29.7819 60.0835 29.6405C60.2719 29.4991 60.3661 29.2948 60.3661 29.0276V27.1419C59.7852 27.4404 58.851 27.5897 57.5637 27.5897H49.9336C49.7138 27.5897 49.6039 27.4719 49.6039 27.2362V26.1754H58.5056C58.9609 26.1754 59.2828 26.0733 59.4712 25.869C59.6753 25.6804 59.7773 25.3504 59.7773 24.879V21.296C59.7773 20.8246 59.6753 20.4946 59.4712 20.306Z" fill="#499690"/>
</svg>
